<svg width="170" height="42" id="logo-mondelez-white-footer-svg" xmlns="http://www.w3.org/2000/svg" viewBox="0 0 170 42"><style>.st0{fill:#fff}</style><path class="st0" d="M18.3 27.1c-.8.7-1.9.9-2.6 1-1.4.2-2.9-.3-3.9-1.4-.8-.9-1.2-2.2-1.9-3.1-1.2-1.5-3.1-2.5-5.1-2.2-3.9.7-5.7 5.3-3.5 8.5 3.2 4.5 10.3 3.8 14 .6 1.1-1 2.1-2.1 3-3.4M151.4 27.1c.8.7 1.9.9 2.6 1 1.4.2 2.9-.3 3.9-1.4.8-.9 1.2-2.2 1.9-3.1 1.2-1.5 3.1-2.5 5.1-2.2 3.9.7 5.7 5.3 3.5 8.5-3.2 4.5-10.3 3.8-14 .6-1-1-2.1-2.1-3-3.4M138.3 2.9h-9.6c-1 0-1.9 1-1.9 2-.1 1 .9 2.1 1.9 2.1h9.6c1 0 1.9-1 1.9-2 .1-1-.8-2-1.9-2.1M78.6 23.3c-.1-.5-.2-1.1-.2-1.6v-2.9c.1-3.5.7-9.6-4-9.6-3.2 0-5.1 2.7-5.6 3.5-.1-2.4-2-4.2-4.9-4.2-1.9 0-3 1.5-3 1.5s1.8.6 1.8 3.1v10.4c.1 1.5 1.1 2.9 3 2.9s3.1-1.5 3.1-2.9v-7.6c.3-1.2 1-2.5 2-2.5 1.4 0 1.4 1.5 1.4 1.5v7.3c0 .2 0 .5.1.7.1.4.2.7.3 1.1.7 1.5 2.3 2.4 4.5 2.4 1.9 0 3-1.5 3-1.5s-1-.3-1.5-1.6M123.8 23.3c-.1-.5-.2-1.1-.2-1.6V3.5c0-1.8-1.4-3.2-3.2-3.2-1.8 0-3.2 1.4-3.2 3.2v16.1c0 1.5-.1 2.9.6 4.3.7 1.5 2.5 2.6 4.7 2.6 1.9 0 3-1.5 3-1.5s-1.2-.4-1.7-1.7M52.3 22.8c-1.7 0-2.5-1.9-2.5-5s1-5 2.5-5c1.4 0 2.5 1.9 2.5 5s-.8 5-2.5 5m0-13.7c-4.8 0-8.7 3.9-8.7 8.7 0 4.8 3.9 8.7 8.7 8.7 4.8 0 8.7-3.9 8.7-8.7 0-4.8-3.9-8.7-8.7-8.7"/><path class="st0" d="M88.7 22.2s-.1 0 0 0c-.1 0-.1 0 0 0-1.7 0-2.5-1.7-2.5-4.4s1-4.3 2.5-4.4c1.4 0 2.5 1.7 2.5 4.4-.1 2.8-.9 4.4-2.5 4.4m9.5 1.1c-.1-.5-.2-1.1-.2-1.6V3.5C98 1.7 96.6.3 94.8.3c-1.8 0-3.2 1.4-3.2 3.2v8.6c-.8-1.1-2.5-2.9-5.1-2.9-7.4 0-7.8 13.1-2.8 16.3 1.4.9 3.6 1.1 5.2.7 1.1-.3 2.9-1.4 3.2-2.7 0 .1.1.2.1.3.7 1.5 2.5 2.6 4.7 2.6 1.9 0 3-1.5 3-1.5s-1.2-.3-1.7-1.6M105.5 16.8c.2-1.4.5-3.1 1.7-3.9 1-.7 2.5.1 2.5 1.4 0 1.4-.9 2.3-2.1 2.5-.1 0-2.1.1-2.1 0m9.4 4.3s-.9 1.3-4.6 1.3c-3.6 0-4.4-2.8-4.4-2.8 5.3 0 9.8-.4 9.8-4.7s-4.9-5.7-7.7-5.7c-4.8 0-8.2 3.8-8.2 8.8 0 5.6 4.5 8.5 8.3 8.5 6.5 0 6.8-5.4 6.8-5.4zM131.1 16.8c.2-1.4.5-3.1 1.7-3.9 1-.7 2.5.1 2.5 1.4 0 1.4-.9 2.3-2.1 2.5 0 0-2.1.1-2.1 0m9.4 4.3s-.9 1.3-4.6 1.3-4.4-2.8-4.4-2.8c5.3 0 9.8-.4 9.8-4.7s-4.9-5.7-7.7-5.7c-4.8 0-8.2 3.8-8.2 8.8 0 5.6 4.5 8.5 8.3 8.5 6.5 0 6.8-5.4 6.8-5.4zM152.5 21.6h-3.6c.3 0 3-2.3 3.9-3 2.3-2 6.6-4.9 5.3-8.6-.2-.9-.9-1.4-.9-1.4s-.3.7-1.1 1c-.4.1-.7.2-1.1.2h-10.2c-1.3 0-2.5 1.1-2.5 2.3 0 1.3 1 2.3 2.4 2.3h5.8c-2.7 1.5-5.9 3.3-7.5 6-.9 1.6-1.9 3.9-1.5 5.8 1.3-1.1 4.7-2.2 7.2-1.7 1 .2 2 .7 2.8 1.2 4.8 3 7.7-2.9 5.4-5.5 0 .1-1.3 1.4-4.4 1.4M44 25.2c-3-3.2-3.9-8.6-4.1-12.2-.2-3.1 0-8.4 2.4-10-.8-1-2.4-1.4-3.6-1.4-2.7 0-4.1 1.8-5 3.1-.3.4-4.9 6.8-4.9 6.8s-3.9-6-4.4-6.7c-.7-1-1.9-2.8-4.1-3.1-.9-.1-3.4-.3-4.7 1.6 2.3 1.8 2.2 6.5 1.7 9.6-1.5 9.5-5.5 10.4-5.5 10.4 2.1 5.6 7.4 3.4 8.9-1.1 1-2.9 1.6-6.6 1.8-9.6l5.9 9s6.6-9 6.6-8.9C33.9 28.5 39.3 33 44.1 33s6.4-4.4 6.4-4.4c-2.5-.2-4.8-1.5-6.5-3.4"/><g><path class="st0" d="M58.9 30.4c.1.2.1.5.1.7v8.4c0 .7.7 1.3 1.3 1.3.7 0 1.4-.6 1.4-1.3V32c0-.6.1-1.3-.2-1.8-.3-.6-1.1-1.1-2-1.1-.8 0-1.3.6-1.3.6s.5.1.7.7M145.7 39.4c-.1-.2-.1-.5-.1-.7v-8.4c0-.7-.7-1.3-1.3-1.3-.7 0-1.4.6-1.4 1.3v7.5c0 .6-.1 1.3.2 1.8.3.6 1.1 1.1 2 1.1.8 0 1.3-.6 1.3-.6s-.5-.2-.7-.7M96.1 33.3c-1.4 0-2.3 1.2-2.5 1.6v-.7c0-.7-.7-1.2-1.3-1.2-.7 0-1.4.5-1.4 1.2v5.3c0 .7.7 1.3 1.3 1.3.7 0 1.4-.6 1.4-1.3v-3.2c.1-.6.4-1.1.9-1.1.6 0 .6.7.6.7v3.6c0 .7.7 1.3 1.3 1.3.7 0 1.4-.6 1.4-1.3v-1.9c.1-2 .3-4.3-1.7-4.3M131.1 33.3c-1.4 0-2.3 1.2-2.5 1.6v-.7c0-.7-.7-1.2-1.3-1.2-.7 0-1.4.5-1.4 1.2v5.3c0 .7.7 1.3 1.3 1.3.7 0 1.4-.6 1.4-1.3v-3.2c.1-.6.4-1.1.9-1.1.6 0 .6.7.6.7v3.6c0 .7.7 1.3 1.3 1.3.7 0 1.4-.6 1.4-1.3v-1.9c.1-2 .3-4.3-1.7-4.3M68.3 33.3c-1.4 0-2.3 1.2-2.5 1.6v-.7c0-.7-.7-1.2-1.3-1.2-.7 0-1.4.5-1.4 1.2v5.3c0 .7.7 1.3 1.3 1.3.7 0 1.4-.6 1.4-1.3v-3.2c.1-.6.4-1.1.9-1.1.6 0 .6.7.6.7v3.6c0 .7.7 1.3 1.3 1.3.7 0 1.4-.6 1.4-1.3v-1.9c.1-2 .3-4.3-1.7-4.3M121.2 39.1c-.8 0-1.1-.9-1.1-2.2 0-1.4.5-2.2 1.1-2.2.6 0 1.1.9 1.1 2.2 0 1.3-.3 2.2-1.1 2.2m0-6.2c-2.2 0-3.9 1.7-3.9 3.9s1.7 3.9 3.9 3.9 3.9-1.7 3.9-3.9c0-2.1-1.7-3.9-3.9-3.9M102.5 38.8c-.1 0-.1 0 0 0-.8 0-1.1-.7-1.1-2 0-1.2.5-1.9 1.1-2 .6 0 1.1.8 1.1 2s-.4 2-1.1 2m4.1-4.8c0-.7-.7-1.3-1.4-1.4-.7 0-1.5.6-1.5 1.4v.2c-.3-.5-1.1-1.3-2.3-1.3-3.3 0-3.5 5.9-1.2 7.3.6.4 1.6.5 2.3.3.4-.1 1-.5 1.3-.9.2.6.7 1 1.3 1 .7 0 1.5-.6 1.5-1.4V34M137.4 38.8c-.8 0-1.1-.7-1.1-2 0-1.2.5-1.9 1.1-2 .6 0 1.1.8 1.1 2s-.3 2-1.1 2m4.2-4.8c0-.7-.7-1.3-1.4-1.4-.7 0-1.5.6-1.5 1.4v.2c-.3-.5-1.1-1.3-2.3-1.3-3.3 0-3.5 5.9-1.2 7.3.6.4 1.6.5 2.3.3.4-.1 1-.5 1.3-.9.2.6.7 1 1.3 1 .7 0 1.5-.6 1.5-1.4V34M116.4 34.8c0-.7-.6-1.2-1.2-1.3h-.1c-.6 0-1.4.5-1.4 1.2v4.7c0 .7.6 1.2 1.2 1.3h.1c.6 0 1.4-.5 1.4-1.2v-2.1-2.6M116.4 31.4c0 .7-.6 1.4-1.4 1.4-.8 0-1.4-.6-1.4-1.4 0-.8.6-1.4 1.4-1.4.8 0 1.4.6 1.4 1.4M88.7 33.2c-.8 0-1.2.6-1.8 1.4v-.4c0-.7-.7-1.3-1.3-1.3-.7 0-1.4.6-1.4 1.3v5.3c0 .7.7 1.3 1.3 1.3.7 0 1.4-.6 1.4-1.3v-3.3c0-.5.3-1.1.6-1.1.6 0 0 1.3 1.3 1.3 1.9 0 2.1-3.3-.1-3.2M78.9 36.4c.1-.6.2-1.4.8-1.8.5-.3 1.1 0 1.1.6s-.4 1-.9 1.1c-.1.1-1 .1-1 .1m4.2 1.9s-.4.6-2.1.6c-1.6 0-2-1.3-2-1.3 2.4 0 4.4-.2 4.4-2.1 0-1.9-2.2-2.6-3.5-2.6-2.1 0-3.7 1.7-3.7 3.9 0 2.5 2 3.8 3.7 3.8 3.1.1 3.2-2.3 3.2-2.3zM76.1 39.3s-.7 1.4-2 1.4c-1.1 0-2.4-1-2.5-2.3v-3.7h-.4c-.2 0-.5-.1-.5-.6s.4-.6.6-.6h.3v-1c0-.7.7-1.3 1.4-1.3s1.3.6 1.3 1.3v1h1.2c.2 0 .5.1.5.6s-.4.6-.6.6h-1.1v3.1c.1 1 .9 1.5 1.8 1.5M112.7 39.3s-.7 1.4-2 1.4c-1.1 0-2.4-1-2.5-2.3v-3.7h-.4c-.2 0-.5-.1-.5-.6s.4-.6.6-.6h.3v-1c0-.7.7-1.3 1.4-1.3s1.3.6 1.3 1.3v1h1.2c.2 0 .5.1.5.6s-.4.6-.6.6h-1v3.1c0 1 .8 1.5 1.7 1.5"/></g></svg>