<svg width="126" height="62" viewBox="0 0 126 62" fill="none" xmlns="http://www.w3.org/2000/svg">
<path d="M58.4931 23.7451C59.2532 23.8134 62.0827 23.5764 62.7162 26.434C65.3979 23.799 64.877 20.3347 62.9626 18.9633C59.7389 16.6549 56.3076 18.7658 55.9944 21.1496C55.7938 22.6825 56.6701 23.58 58.4931 23.7451ZM124.525 19.9828C122.745 19.9182 120.116 22.9123 117.969 22.9195C116.554 22.923 116.449 21.8209 117.297 19.9685C120.443 13.1008 116.621 13.3198 115.805 13.966C115.805 13.966 118.536 9.05493 113.718 9.07288C107.784 9.09442 102.519 14.1742 99.7637 21.7276C98.7572 24.298 96.54 29.7979 94.2067 30.48C91.9755 31.0974 91.9826 28.1142 90.5537 27.5721C100.038 21.0527 100.147 15.7862 98.6586 13.9947C97.3107 12.4259 92.8272 11.9305 87.2632 17.793C88.6252 12.5875 92.4823 9.38521 93.4079 4.15101C93.89 1.06721 91.6658 -2.12429 87.4427 3.0058C84.5815 6.47014 83.0999 12.8065 80.3372 20.8983C78.6867 25.8166 75.4103 34.6659 72.4822 34.6767C71.2047 34.6802 70.8457 33.5135 71.2434 30.3041C72.0001 24.0108 76.9623 16.7698 78.7008 11.5643C79.9924 8.09281 78.7113 6.04293 77.2403 5.6947C75.2695 5.31775 72.4717 7.22045 70.3918 12.4295C68.7447 16.0303 67.4039 20.9809 66.4185 26.5992C65.5035 31.2877 61.8716 40.4996 58.3417 40.0293C57.0255 39.8534 58.3593 36.4788 59.9782 33.115C61.3507 30.261 62.4347 26.811 59.5348 26.8038C55.0688 26.7966 51.7924 36.188 51.2645 43.1885C51.0076 46.5918 50.8949 50.53 53.4746 50.5193C56.6525 50.5085 60.7806 47.1124 64.6413 41.1889C64.9193 44.4881 69.0474 48.875 77.0045 37.0999C77.1206 38.8949 77.5218 41.5551 78.8521 41.6376C78.8521 41.6376 80.0733 41.9823 81.3367 39.06C82.6001 36.1342 83.9762 32.4437 84.2648 31.7436C84.9405 30.103 86.1969 29.7943 86.3165 32.5909C86.4362 35.4629 87.1858 37.5917 89.4768 37.5845C93.9745 37.5666 97.8738 33.3627 98.9894 31.7759C99.6335 34.2566 105.155 35.1326 111.17 27.7085C111.437 29.6758 113.112 32.537 120.686 26.5166C125.465 22.7759 125.891 20.0259 124.522 19.9757M86.401 24.7934C86.2285 24.8042 85.9259 24.6498 86.0526 24.316C86.6579 22.7256 87.6327 21.3434 88.8645 20.27C89.9555 19.3223 91.1238 18.7515 91.9931 18.7443C92.8096 18.7407 93.2952 19.2541 93.2565 20.0905C93.2249 20.7511 92.8342 21.5445 92.0811 22.2553C89.4064 24.7755 86.6332 24.7791 86.4045 24.7934M112.162 16.7195C109.575 20.805 110.501 21.286 108.608 24.2226C107.084 26.5812 104.972 27.1951 104.184 25.9709C103.396 24.7468 104.191 22.0363 105.961 19.9218C107.731 17.8073 113.334 14.8635 112.159 16.7195M46.524 43.745C47.2419 30.0025 54.5585 18.5899 54.8119 13.7794C54.914 11.8408 53.9039 10.3186 51.627 10.4191C47.7874 10.5914 40.9248 16.1882 37.4935 23.2282C35.5931 17.3047 30.9899 20.805 28.822 23.4077C29.2267 12.2787 25.8904 11.3238 23.9408 11.4135C17.8594 11.6864 11.5071 20.0439 8.06529 26.1002C4.88386 31.7006 -3.21753 48.3868 3.22627 49.3812C4.82051 49.6289 6.43234 47.7729 7.54795 43.4829C11.7535 27.2885 16.779 23.5836 18.8202 23.7416C24.2188 24.158 17.2471 44.6676 14.8645 51.8978C13.5378 55.7499 12.3975 61.9893 16.7086 61.7954C21.523 61.5764 23.5431 49.2053 24.6904 42.4813C25.989 35.1146 27.8366 32.7273 29.6842 32.8888C31.8521 33.1545 30.9406 37.5738 29.5118 41.8064C28.2237 46.1251 23.8141 56.6761 29.005 57.1356C34.2382 57.3223 34.0094 47.6401 35.4488 41.5371C37.6378 32.3468 40.0837 26.1361 42.7091 26.653C45.9433 27.3531 38.3874 39.4083 37.8877 48.9756C37.5006 56.3925 40.784 61.7703 45.5456 59.6809C50.5641 57.2505 46.1369 51.169 46.5275 43.7521" fill="white"/>
</svg>
